<svg width="30" height="31" viewBox="0 0 30 31" fill="none" xmlns="http://www.w3.org/2000/svg">
<path d="M14.9346 15.3267C15.6191 15.3267 16.2053 15.0764 16.6931 14.5757C17.181 14.0751 17.4245 13.4739 17.4237 12.7723C17.4237 12.0698 17.1798 11.4682 16.6919 10.9676C16.204 10.4669 15.6183 10.217 14.9346 10.2178C14.2501 10.2178 13.6639 10.4682 13.176 10.9688C12.6882 11.4695 12.4447 12.0707 12.4455 12.7723C12.4455 13.4748 12.6894 14.0763 13.1773 14.577C13.6652 15.0777 14.2509 15.3276 14.9346 15.3267ZM14.9346 28.099C11.5951 25.1827 9.10098 22.4741 7.45237 19.9733C5.80376 17.4725 4.97904 15.1573 4.97821 13.0277C4.97821 9.83465 5.97924 7.29084 7.9813 5.39628C9.98337 3.50172 12.3011 2.55444 14.9346 2.55444C17.5689 2.55444 19.8871 3.50172 21.8891 5.39628C23.8912 7.29084 24.8918 9.83465 24.891 13.0277C24.891 15.1564 24.0662 17.4716 22.4168 19.9733C20.7674 22.475 18.2733 25.1836 14.9346 28.099Z" fill="#544C4C"/>
</svg>
