<svg width="42" height="42" viewBox="0 0 42 42" fill="none" xmlns="http://www.w3.org/2000/svg">
<path d="M16.1875 38.5L15.4875 32.9C15.1083 32.7542 14.7507 32.5792 14.4147 32.375C14.0787 32.1708 13.7509 31.9521 13.4312 31.7188L8.22498 33.9063L3.41248 25.5938L7.91873 22.1813C7.88956 21.9771 7.87498 21.7799 7.87498 21.5898V20.4103C7.87498 20.2201 7.88956 20.0229 7.91873 19.8188L3.41248 16.4063L8.22498 8.09375L13.4312 10.2813C13.7521 10.0479 14.0875 9.82917 14.4375 9.625C14.7875 9.42083 15.1375 9.24583 15.4875 9.1L16.1875 3.5H25.8125L26.5125 9.1C26.8916 9.24583 27.2492 9.42083 27.5852 9.625C27.9212 9.82917 28.2491 10.0479 28.5687 10.2813L33.775 8.09375L38.5875 16.4063L34.0812 19.8188C34.1104 20.0229 34.125 20.2201 34.125 20.4103V21.5898C34.125 21.7799 34.0958 21.9771 34.0375 22.1813L38.5437 25.5938L33.7312 33.9063L28.5687 31.7188C28.2479 31.9521 27.9125 32.1708 27.5625 32.375C27.2125 32.5792 26.8625 32.7542 26.5125 32.9L25.8125 38.5H16.1875ZM21.0875 27.125C22.7791 27.125 24.2229 26.5271 25.4187 25.3313C26.6146 24.1354 27.2125 22.6917 27.2125 21C27.2125 19.3083 26.6146 17.8646 25.4187 16.6688C24.2229 15.4729 22.7791 14.875 21.0875 14.875C19.3666 14.875 17.9153 15.4729 16.7335 16.6688C15.5516 17.8646 14.9613 19.3083 14.9625 21C14.9625 22.6917 15.5528 24.1354 16.7335 25.3313C17.9141 26.5271 19.3655 27.125 21.0875 27.125ZM21.0875 23.625C20.3583 23.625 19.7382 23.3695 19.2272 22.8585C18.7162 22.3475 18.4613 21.728 18.4625 21C18.4625 20.2708 18.718 19.6508 19.229 19.1398C19.74 18.6288 20.3595 18.3738 21.0875 18.375C21.8166 18.375 22.4367 18.6305 22.9477 19.1415C23.4587 19.6525 23.7136 20.272 23.7125 21C23.7125 21.7292 23.457 22.3493 22.946 22.8603C22.435 23.3713 21.8155 23.6262 21.0875 23.625ZM19.25 35H22.7062L23.3187 30.3625C24.2229 30.1292 25.0617 29.7862 25.8352 29.3335C26.6087 28.8808 27.3157 28.3343 27.9562 27.6938L32.2875 29.4875L33.9937 26.5125L30.2312 23.6688C30.3771 23.2604 30.4791 22.8305 30.5375 22.379C30.5958 21.9275 30.625 21.4678 30.625 21C30.625 20.5333 30.5958 20.0743 30.5375 19.6228C30.4791 19.1713 30.3771 18.7408 30.2312 18.3313L33.9937 15.4875L32.2875 12.5125L27.9562 14.35C27.3146 13.6792 26.6076 13.118 25.8352 12.6665C25.0629 12.215 24.2241 11.872 23.3187 11.6375L22.75 7H19.2937L18.6812 11.6375C17.7771 11.8708 16.9388 12.2138 16.1665 12.6665C15.3941 13.1192 14.6866 13.6658 14.0437 14.3063L9.71248 12.5125L8.00623 15.4875L11.7687 18.2875C11.6229 18.725 11.5208 19.1625 11.4625 19.6C11.4041 20.0375 11.375 20.5042 11.375 21C11.375 21.4667 11.4041 21.9188 11.4625 22.3563C11.5208 22.7938 11.6229 23.2313 11.7687 23.6688L8.00623 26.5125L9.71248 29.4875L14.0437 27.65C14.6854 28.3208 15.393 28.8826 16.1665 29.3353C16.94 29.7879 17.7782 30.1303 18.6812 30.3625L19.25 35Z" fill="#C7C6C5"/>
</svg>
